# xmcd CD database file
#
# Track frame offsets:
#	150
#	13044
#	29294
#	44427
#	57671
#	69662
#	98553
#	104013
#	110847
#	121405
#	133102
#	152542
#	163779
#	177388
#	189005
#	200420
#	214495
#	228991
#	244766
#	259807
#
# Disc length: 3649 seconds
#
# Revision: 4
# Processed by: cddbd v1.5.2PL0 Copyright (c) Steve Scherf et al.
# Submitted via: CDex 1.51
#
DISCID=250e3f14
DTITLE=Various Artist - 50 ans de grandes voix françaises  [CD 6-6]  Enregistrements d'origine 78 tours remasterisés
DYEAR=2001
DGENRE=Chants
TTITLE0=Gustave Nelson - Quand on a pas le pied marin
TTITLE1=Robert Burnier - En amour il n'est pas de grade
TTITLE2=Robert Burnier - Ce n'est pas la première fois
TTITLE3=Marcelle Denya - Tous les deux me plaisent
TTITLE4=Marcelle Denya - Les hommes sonr bien
TTITLE5=Simone Simon - O mon bel inconnu
TTITLE6=Guy Ferrant - Duo A B C
TTITLE7=Arletty - La chalcographie
TTITLE8=Arletty - Qu'est ce qu'il faut pour être heureux
TTITLE9=Simone Simon - Est-ce qu'il est bien, est-ce qu'il est mal
TTITLE10=Pills and Tabet - Toi, c'est moi
TTITLE11=Simone Simon - Afin de plaire à son papa
TTITLE12=Lyne Clevers - C'est ça la vie, c'est ça l'amour
TTITLE13=Simone Simon - Pourquoi donc lorsque l'on s'aime
TTITLE14=Pauline Carton - Sous les palétuviers
TTITLE15=Henri Garat - J'aime les femmes
TTITLE16=Henri Garat - Quand on est vraiment amoureux
TTITLE17=Arletty - Dans sa baignoire
TTITLE18=Meg Lemonnier - Si tu m'aimes
TTITLE19=Dranem - Chanson du doge
EXTD=YEAR: 2001
EXTT0=
EXTT1=
EXTT2=
EXTT3=
EXTT4=
EXTT5=
EXTT6=
EXTT7=
EXTT8=
EXTT9=
EXTT10=
EXTT11=
EXTT12=
EXTT13=
EXTT14=
EXTT15=
EXTT16=
EXTT17=
EXTT18=
EXTT19=
PLAYORDER=
